<?xml version="1.0" encoding="utf-8"?>
<!-- Generator: Adobe Illustrator 24.3.0, SVG Export Plug-In . SVG Version: 6.00 Build 0)  -->
<svg version="1.1" id="Capa_1" xmlns="http://www.w3.org/2000/svg" xmlns:xlink="http://www.w3.org/1999/xlink" x="0px" y="0px"
	 viewBox="0 0 242.8 37" style="enable-background:new 0 0 242.8 37;" xml:space="preserve">
<style type="text/css">
	.st0{fill:none;stroke:#3FE8B0;stroke-miterlimit:10;}
	.st1{fill:#3FE8B0;}
</style>
<g>
	<path class="st0" d="M1147.3,304h-501c-17.1,0-31-13.9-31-31v0c0-17.1,13.9-31,31-31h501c17.1,0,31,13.9,31,31v0
		C1178.3,290.1,1164.4,304,1147.3,304z"/>
	<text transform="matrix(1 0 0 1 656.9832 277.2243)" style="fill:#B7B7B7; font-family:'Poppins-Regular'; font-size:16px;">Busca los productos que quieres</text>
</g>
<g>
	<g>
		<path d="M0.3,263.7c1.6-2.8,3.7-4.9,6.4-6.4c2.7-1.5,5.8-2.3,9.1-2.3c4,0,7.4,1,10.4,3c3,2,5,4.8,6.2,8.4h-8.2
			c-0.8-1.7-2-3-3.4-3.8c-1.5-0.8-3.2-1.3-5.1-1.3c-2.1,0-3.9,0.5-5.5,1.4c-1.6,1-2.9,2.3-3.7,4.1c-0.9,1.8-1.3,3.8-1.3,6.2
			c0,2.3,0.4,4.4,1.3,6.2c0.9,1.8,2.1,3.1,3.7,4.1c1.6,1,3.4,1.4,5.5,1.4c1.9,0,3.6-0.4,5.1-1.3c1.5-0.9,2.6-2.1,3.4-3.8h8.2
			c-1.2,3.6-3.3,6.4-6.2,8.4c-3,2-6.4,3-10.4,3c-3.4,0-6.4-0.8-9.1-2.3c-2.7-1.5-4.9-3.7-6.4-6.4c-1.6-2.7-2.4-5.8-2.4-9.3
			C-2,269.6-1.2,266.5,0.3,263.7z"/>
		<path d="M74.1,290.8L66.3,277h-3.3v13.8h-7.1v-35.4h13.3c2.7,0,5.1,0.5,7,1.4c1.9,1,3.4,2.3,4.3,3.9c1,1.6,1.4,3.5,1.4,5.5
			c0,2.3-0.7,4.4-2,6.3c-1.4,1.9-3.4,3.2-6,3.9l8.5,14.3H74.1z M62.9,271.7h5.9c1.9,0,3.4-0.5,4.3-1.4c0.9-0.9,1.4-2.2,1.4-3.9
			c0-1.6-0.5-2.9-1.4-3.8c-0.9-0.9-2.4-1.3-4.3-1.3h-5.9V271.7z"/>
		<path d="M112.8,288.8c-2.8-1.6-5-3.7-6.6-6.5c-1.6-2.8-2.4-5.9-2.4-9.3c0-3.4,0.8-6.5,2.4-9.3c1.6-2.8,3.8-4.9,6.6-6.5
			c2.8-1.6,5.8-2.3,9.1-2.3c3.3,0,6.4,0.8,9.1,2.3c2.8,1.6,4.9,3.7,6.5,6.5c1.6,2.8,2.4,5.9,2.4,9.3c0,3.5-0.8,6.6-2.4,9.3
			c-1.6,2.8-3.8,4.9-6.6,6.5c-2.8,1.6-5.8,2.3-9.1,2.3C118.6,291.1,115.6,290.4,112.8,288.8z M127.5,283.4c1.6-1,2.9-2.3,3.8-4.1
			c0.9-1.8,1.4-3.9,1.4-6.2c0-2.4-0.5-4.4-1.4-6.2c-0.9-1.8-2.2-3.1-3.8-4.1c-1.6-0.9-3.5-1.4-5.6-1.4s-4,0.5-5.6,1.4
			c-1.6,0.9-2.9,2.3-3.8,4.1c-0.9,1.8-1.4,3.8-1.4,6.2c0,2.4,0.5,4.4,1.4,6.2c0.9,1.8,2.2,3.2,3.8,4.1c1.6,1,3.5,1.4,5.6,1.4
			S125.9,284.3,127.5,283.4z"/>
		<path d="M209.8,255.4l-9.9,35.4h-8.4l-6.6-25.2l-6.9,25.2l-8.3,0.1l-9.5-35.4h7.6l6.2,27.5l7.2-27.5h7.9l6.8,27.3l6.3-27.3H209.8z
			"/>
	</g>
	<circle class="st1" cx="231.8" cy="283.5" r="8"/>
</g>
<image style="overflow:visible;" width="1920" height="921" xlink:href="../../public/images/banner__iphone.jpg"  transform="matrix(0.8813 0 0 0.8813 50.7601 390.2055)">
</image>
<image style="overflow:visible;" width="1920" height="921" xlink:href="../../public/images/banner__iphone.jpg"  transform="matrix(0.8813 0 0 0.8813 1978.76 390.5211)">
</image>
<g>
	<g>
		<path d="M2.9,9.1c1.6-2.8,3.7-4.9,6.4-6.4c2.7-1.5,5.8-2.3,9.1-2.3c4,0,7.4,1,10.4,3c3,2,5,4.8,6.2,8.4H27c-0.8-1.7-2-3-3.4-3.8
			c-1.5-0.8-3.2-1.3-5.1-1.3c-2.1,0-3.9,0.5-5.5,1.4c-1.6,1-2.9,2.3-3.7,4.1c-0.9,1.8-1.3,3.8-1.3,6.2c0,2.3,0.4,4.4,1.3,6.2
			c0.9,1.8,2.1,3.1,3.7,4.1c1.6,1,3.4,1.4,5.5,1.4c1.9,0,3.6-0.4,5.1-1.3C25,28,26.2,26.7,27,25h8.2c-1.2,3.6-3.3,6.4-6.2,8.4
			c-3,2-6.4,3-10.4,3c-3.4,0-6.4-0.8-9.1-2.3c-2.7-1.5-4.9-3.7-6.4-6.4c-1.6-2.7-2.4-5.8-2.4-9.3C0.6,15,1.4,11.9,2.9,9.1z"/>
		<path d="M76.7,36.2l-7.8-13.8h-3.3v13.8h-7.1V0.8h13.3c2.7,0,5.1,0.5,7,1.4c1.9,1,3.4,2.3,4.3,3.9c1,1.6,1.4,3.5,1.4,5.5
			c0,2.3-0.7,4.4-2,6.3c-1.4,1.9-3.4,3.2-6,3.9l8.5,14.3H76.7z M65.5,17.1h5.9c1.9,0,3.4-0.5,4.3-1.4c0.9-0.9,1.4-2.2,1.4-3.9
			c0-1.6-0.5-2.9-1.4-3.8c-0.9-0.9-2.4-1.3-4.3-1.3h-5.9V17.1z"/>
		<path d="M115.4,34.2c-2.8-1.6-5-3.7-6.6-6.5c-1.6-2.8-2.4-5.9-2.4-9.3c0-3.4,0.8-6.5,2.4-9.3c1.6-2.8,3.8-4.9,6.6-6.5
			c2.8-1.6,5.8-2.3,9.1-2.3c3.3,0,6.4,0.8,9.1,2.3c2.8,1.6,4.9,3.7,6.5,6.5c1.6,2.8,2.4,5.9,2.4,9.3c0,3.5-0.8,6.6-2.4,9.3
			c-1.6,2.8-3.8,4.9-6.6,6.5c-2.8,1.6-5.8,2.3-9.1,2.3C121.2,36.5,118.2,35.8,115.4,34.2z M130.2,28.8c1.6-1,2.9-2.3,3.8-4.1
			c0.9-1.8,1.4-3.9,1.4-6.2c0-2.4-0.5-4.4-1.4-6.2c-0.9-1.8-2.2-3.1-3.8-4.1c-1.6-0.9-3.5-1.4-5.6-1.4c-2.1,0-4,0.5-5.6,1.4
			c-1.6,0.9-2.9,2.3-3.8,4.1c-0.9,1.8-1.4,3.8-1.4,6.2c0,2.4,0.5,4.4,1.4,6.2c0.9,1.8,2.2,3.2,3.8,4.1c1.6,1,3.5,1.4,5.6,1.4
			C126.7,30.2,128.5,29.7,130.2,28.8z"/>
		<path d="M212.4,0.8l-9.9,35.4h-8.4L187.5,11l-6.9,25.2l-8.3,0.1l-9.5-35.4h7.6l6.2,27.5l7.2-27.5h7.9l6.8,27.3l6.3-27.3H212.4z"/>
	</g>
	<circle class="st1" cx="234.4" cy="28.5" r="8"/>
</g>
</svg>
